 <svg xmlns="http://www.w3.org/2000/svg" xmlns:xlink="http://www.w3.org/1999/xlink" width="70" height="70" viewBox="0 0 2501 2501">
            <path fill-rule="nonzero" fill="rgb(19.993591%, 19.993591%, 19.993591%)" d="M1250.84 647.12c-76.25 0-145.27 30.9-195.23 80.86s-80.86 119.03-80.86 195.23c0 76.25 30.9 145.27 80.86 195.23 49.96 49.96 119.03 80.86 195.23 80.86s145.27-30.9 195.23-80.86 80.86-119.03 80.86-195.23c0-76.25-30.9-145.27-80.86-195.23-49.96-49.96-119.03-80.86-195.23-80.86zM987.73 660.11c67.34-67.34 160.36-108.99 263.1-108.99s195.76 41.65 263.1 108.99c67.34 67.34 108.99 160.36 108.99 263.1s-41.65 195.76-108.99 263.1c-67.34 67.34-160.36 108.99-263.1 108.99s-195.76-41.65-263.1-108.99c-67.34-67.34-108.99-160.36-108.99-263.1s41.65-195.76 108.99-263.1z"/>
            <path fill-rule="nonzero" fill="rgb(19.993591%, 19.993591%, 19.993591%)" d="M890.52 1413.84c-71.36 52.87-130.75 121.12-173.29 199.91-38.96 72.16-63.69 153.22-70.42 239.45h1208.06c-6.74-86.23-31.46-167.29-70.42-239.45-42.54-78.79-102.92-147.04-174.27-199.91-46.56 34.28-98.11 62.06-153.31 82.02-64.9 23.46-134.6 36.25-206.99 36.25s-142.1-12.79-207-36.25c-55.2-19.96-106.77-47.74-153.33-82.02zm-257.66 154.53c55.42-102.64 135.79-189.96 233.05-253.89l29.61-19.46 27.2 22.65c45.21 37.65 97.12 67.71 153.75 88.18 54.15 19.58 112.85 30.26 174.37 30.26s120.22-10.68 174.37-30.26c56.63-20.47 108.56-50.53 153.76-88.18l27.2-22.65 29.61 19.46c97.25 63.93 177.64 151.25 233.06 253.89 53.53 99.15 83.91 212.52 83.91 332.85v48h-1403.8v-48c0-120.34 30.39-233.71 83.92-332.85z"/>
        </svg>
